<svg width="1600" height="1000" viewBox="0 0 1600 1000" fill="none" xmlns="http://www.w3.org/2000/svg">
  <rect width="1600" height="1000" fill="#0C0D0F"/>
  <g opacity="0.22" stroke="#75808C">
    <path d="M0 100H1600"/>
    <path d="M0 220H1600"/>
    <path d="M0 340H1600"/>
    <path d="M0 460H1600"/>
    <path d="M0 580H1600"/>
    <path d="M0 700H1600"/>
    <path d="M0 820H1600"/>
    <path d="M0 940H1600"/>
    <path d="M120 0V1000"/>
    <path d="M360 0V1000"/>
    <path d="M600 0V1000"/>
    <path d="M840 0V1000"/>
    <path d="M1080 0V1000"/>
    <path d="M1320 0V1000"/>
    <path d="M1560 0V1000"/>
  </g>
  <g opacity="0.18" stroke="#D63B43" stroke-width="3">
    <path d="M1180 -140L1600 280"/>
    <path d="M1060 -140L1600 400"/>
    <path d="M940 -140L1600 520"/>
  </g>
  <rect x="1155" y="640" width="300" height="300" rx="150" fill="#B82931" opacity="0.06"/>
</svg>
